<svg t="1748348372683" class="icon" viewBox="0 0 1024 1024" version="1.1" xmlns="http://www.w3.org/2000/svg" p-id="902" width="200" height="200"><path d="M800.295385 597.070769h-25.206154v-67.741538-4.726154-4.726154c0-17.329231-14.178462-31.507692-31.507693-31.507692H537.206154v-61.44h36.233846c63.015385 0 113.427692-50.412308 113.427692-113.427693v-135.483076c0-63.015385-50.412308-113.427692-113.427692-113.427693h-135.483077c-63.015385 0-113.427692 50.412308-113.427692 113.427693v135.483076c0 63.015385 50.412308 113.427692 113.427692 113.427693h36.233846V488.369231H294.596923c-17.329231 0-31.507692 14.178462-31.507692 31.507692V597.070769h-36.233846c-63.015385 0-113.427692 50.412308-113.427693 113.427693v135.483076c0 63.015385 50.412308 113.427692 113.427693 113.427693H362.338462c63.015385 0 113.427692-50.412308 113.427692-113.427693v-135.483076c0-63.015385-50.412308-113.427692-113.427692-113.427693h-36.233847V551.384615h385.969231v45.686154h-47.261538c-63.015385 0-113.427692 50.412308-113.427693 113.427693v135.483076c0 63.015385 50.412308 113.427692 113.427693 113.427693h135.483077c63.015385 0 113.427692-50.412308 113.427692-113.427693v-135.483076c-1.575385-63.015385-51.987692-113.427692-113.427692-113.427693z m-411.175385-283.569231v-135.483076c0-26.781538 22.055385-50.412308 50.412308-50.412308h135.483077c26.781538 0 50.412308 22.055385 50.412307 50.412308v135.483076c0 26.781538-22.055385 50.412308-50.412307 50.412308h-135.483077c-28.356923 0-50.412308-23.630769-50.412308-50.412308z m23.630769 396.996924v135.483076c0 26.781538-22.055385 50.412308-50.412307 50.412308h-135.483077c-26.781538 0-50.412308-22.055385-50.412308-50.412308v-135.483076c0-26.781538 22.055385-50.412308 50.412308-50.412308H362.338462c28.356923 0 50.412308 22.055385 50.412307 50.412308z m436.381539 133.907692c0 26.781538-22.055385 50.412308-50.412308 50.412308h-135.483077c-26.781538 0-50.412308-22.055385-50.412308-50.412308V708.923077c0-26.781538 22.055385-50.412308 50.412308-50.412308h135.483077c26.781538 0 50.412308 22.055385 50.412308 50.412308v135.483077z" p-id="903"></path></svg>